<?xml version="1.0" encoding="UTF-8" standalone="no"?>
<!-- Created with Inkscape (http://www.inkscape.org/) -->

<svg
   version="1.1"
   id="svg2"
   width="1011.86"
   height="971.0116"
   viewBox="0 0 1011.86 971.0116"
   xmlns:xlink="http://www.w3.org/1999/xlink"
   xmlns="http://www.w3.org/2000/svg"
   xmlns:svg="http://www.w3.org/2000/svg">
  <defs
     id="defs6">
    <linearGradient
       id="linearGradient927">
      <stop
         style="stop-color:#45b9cd;stop-opacity:1;"
         offset="0"
         id="stop923" />
      <stop
         style="stop-color:#35ff46;stop-opacity:1;"
         offset="1"
         id="stop925" />
    </linearGradient>
    <linearGradient
       xlink:href="#linearGradient927"
       id="linearGradient929"
       x1="42.629517"
       y1="542.45905"
       x2="1054.4895"
       y2="542.45905"
       gradientUnits="userSpaceOnUse" />
  </defs>
  <g
     id="g8"
     transform="translate(-42.629517,-56.953251)">
    <g
       id="g293">
      <path
         style="fill:url(#linearGradient929);fill-opacity:1"
         d="m 492,1026.9376 c -2.475,-0.4466 -8.775,-1.3081 -14,-1.9145 -8.77452,-1.0183 -14.32001,-2.0263 -27.5,-4.9984 -2.75,-0.6202 -7.25,-1.5735 -10,-2.1185 -2.75,-0.545 -7.025,-1.626 -9.5,-2.4022 -5.7229,-1.7948 -25.26167,-7.3248 -30.46063,-8.6211 -2.17835,-0.5432 -4.42835,-1.3621 -5,-1.8198 -0.57165,-0.4577 -2.61437,-1.1611 -4.53937,-1.5631 -1.925,-0.402 -4.625,-1.2989 -6,-1.9931 -1.375,-0.6942 -5.2,-2.25212 -8.5,-3.462 -3.3,-1.20989 -7.84929,-3.06495 -10.10953,-4.12235 C 364.13023,992.86515 362.0026,992 361.6624,992 c -2.56355,0 -47.12821,-22.36964 -56.48851,-28.35492 -2.37936,-1.52145 -5.07936,-3.04611 -6,-3.38814 -0.92064,-0.34203 -2.79889,-1.39412 -4.17389,-2.33798 -1.375,-0.94385 -5.875,-3.84033 -10,-6.43662 -4.125,-2.59628 -9.3,-5.90186 -11.5,-7.34573 -5.25045,-3.44589 -22.58227,-16.04906 -24.5,-17.81566 -0.825,-0.75998 -2.625,-2.30332 -4,-3.42963 C 232.18645,912.39523 217.17549,898.54843 202.29688,883.5 183.33569,864.3224 176.44589,856.68602 168.012,845.5 165.10923,841.65 162.45415,838.275 162.11183,838 159.757,836.10826 139.4729,806.53379 132.38755,794.66163 130.7994,792.00053 128.825,788.78311 128,787.5118 120.50498,775.96214 109.18486,754.58321 101.5188,737.5 c -1.48086,-3.3 -3.302019,-7.35 -4.047006,-9 -1.415762,-3.13563 -7.29344,-18.40984 -10.389891,-27 -0.991277,-2.75 -2.806325,-8.375 -4.033439,-12.5 -1.227114,-4.125 -2.668311,-8.674 -3.202661,-10.10889 -1.141778,-3.06602 -1.431915,-8.63833 -0.498383,-9.57186 0.358919,-0.35892 0.793036,-0.46508 0.964703,-0.23592 0.171668,0.22917 2.007886,3.02249 4.080485,6.20739 18.118732,27.84249 44.870432,48.30702 74.607392,57.0732 19.1993,5.65978 22.20116,6.02777 48.5,5.94547 18.52319,-0.058 26.94304,-0.48243 32.5,-1.63841 4.125,-0.8581 9.75,-1.85133 12.5,-2.20718 2.75,-0.35586 7.25,-1.25175 10,-1.99087 2.75,-0.73913 7.025,-1.78816 9.5,-2.33118 13.60969,-2.98603 42.58526,-11.77469 51,-15.46896 1.925,-0.84512 7.775,-3.20306 13,-5.23988 28.6264,-11.15916 50.87275,-22.28891 88.65561,-44.35397 9.81442,-5.73159 20.09439,-11.85721 22.84439,-13.6125 10.20419,-6.5132 28.16356,-18.50081 33.22057,-22.17422 2.87131,-2.08572 7.13886,-5.14222 9.48344,-6.79222 3.48863,-2.45512 27.12841,-20.32699 32.81142,-24.80571 8.34331,-6.57527 23.70264,-19.80208 30.99814,-26.69429 0.87327,-0.825 7.41497,-6.89581 14.5371,-13.49069 16.97151,-15.71512 55.07068,-53.73151 64.64976,-64.50931 10.28348,-11.57034 32.84722,-38.51866 41.44619,-49.5 7.90614,-10.09656 11.61068,-15.29382 21.8001,-30.58435 9.54312,-14.32068 9.47371,-14.2129 10.24884,-15.91565 0.37556,-0.825 2.1727,-3.84088 3.99364,-6.70196 1.82094,-2.86108 3.3108,-5.48257 3.3108,-5.82553 0,-0.34296 1.73883,-3.62708 3.86407,-7.29804 10.06474,-17.38501 14.54272,-26.25875 24.31042,-48.17447 7.44739,-16.70964 12.29634,-30.12321 16.80955,-46.5 1.21258,-4.4 2.80133,-10.025 3.53055,-12.5 0.72922,-2.475 1.80129,-7.11354 2.38238,-10.30787 0.58108,-3.19432 1.29849,-6.19937 1.59423,-6.67789 0.70048,-1.1334 3.28878,-18.79411 4.61864,-31.51424 1.08116,-10.34134 0.55165,-29.51805 -1.10448,-40 -0.52139,-3.3 -1.40104,-8.925 -1.95477,-12.5 -1.92907,-12.45456 -5.64487,-23.46533 -11.77108,-34.8804 -3.29747,-6.14423 -10.01596,-16.97011 -11.24493,-18.1196 -0.29402,-0.275 -1.58067,-1.98971 -2.85922,-3.81046 C 732.0438,97.761421 731.73187,96.52412 738.75,98.602258 c 2.6125,0.773588 6.1,2.057002 7.75,2.852022 14.30452,6.8924 36.28984,17.73651 37.5,18.49661 0.825,0.51819 3.67726,2.20372 6.33837,3.74563 2.6611,1.54192 6.0361,3.59136 7.5,4.55431 1.46389,0.96296 3.78663,2.31823 5.16163,3.01172 2.39275,1.20679 7.46679,4.327 15,9.22406 1.925,1.25137 6.65354,4.29831 10.50787,6.77098 7.33491,4.70558 27.38305,20.14907 38.49213,29.65127 8.91191,7.62285 43.81786,42.53637 53.79681,53.80848 14.42064,16.2894 33.37644,43.11277 52.40748,74.15913 8.8533,14.44288 18.69594,33.74394 24.79571,48.62353 0.45094,1.1 1.72232,4.025 2.8253,6.5 1.103,2.475 2.9776,6.975 4.1659,10 1.1882,3.025 2.78,6.85 3.5372,8.5 2.1382,4.6592 3.7058,11.67371 2.7944,12.50392 -0.4525,0.41223 -3.6077,1.69481 -7.0115,2.85018 -3.4037,1.15538 -7.67872,3.00918 -9.49996,4.11955 -1.82123,1.11038 -4.26413,2.02056 -5.42865,2.02261 -1.16453,0.002 -7.22179,-3.41451 -13.46059,-7.59237 -19.46415,-13.0343 -35.10916,-19.91401 -61.9221,-27.2295 -22.47274,-6.13134 -31.26704,-7.18102 -65.81899,-7.85615 -20.13892,-0.3935 -26.43481,-0.81605 -26.8122,-1.79952 -0.27126,-0.70689 0.23849,-3.02528 1.13278,-5.15199 1.7801,-4.23328 3.75791,-10.12331 8.01417,-23.86673 1.53299,-4.95 3.28158,-9.36233 3.88575,-9.80518 1.31578,-0.96446 25.81857,0.0942 33.59849,1.45168 3.025,0.52781 9.1,1.5883 13.5,2.35665 17.62291,3.0774 52.28789,12.81783 58.73643,16.5042 0.95504,0.54596 2.24974,0.99265 2.87712,0.99265 0.62737,0 4.46503,1.62063 8.52812,3.6014 7.95938,3.88023 10.97608,3.92756 9.78396,0.15353 -0.91298,-2.89035 -10.62883,-21.55114 -15.03952,-28.88574 C 944.52375,309.77224 943,306.94152 943,306.5787 c 0,-0.36283 -0.85128,-1.87896 -1.89174,-3.36919 -1.04046,-1.49023 -4.88407,-7.31828 -8.54137,-12.95121 -6.1608,-9.4888 -20.79327,-28.99371 -27.99152,-37.31235 -1.69145,-1.95472 -4.87085,-5.77972 -7.06532,-8.5 C 888.63924,233.44966 864.80228,210.5186 844.03169,193 c -2.93443,-2.475 -6.05985,-5.175 -6.94537,-6 -5.6544,-5.26796 -11.24132,-9.11523 -12.78974,-8.80728 -2.10009,0.41766 -2.08666,1.82456 0.15088,15.80728 3.02869,18.9268 3.97644,35.126 2.73306,46.71439 -3.2122,29.93788 -2.97067,28.4021 -8.30144,52.78561 -2.79707,12.79408 -11.05108,39.75134 -14.43715,47.15113 -0.79306,1.73312 -1.44193,3.68869 -1.44193,4.34571 0,0.65702 -0.65646,2.38901 -1.4588,3.84887 -0.80235,1.45986 -2.40023,4.90429 -3.55086,7.65429 -4.2294,10.10821 -5.66614,13.19049 -14.41145,30.91707 -7.68623,15.57985 -16.63821,31.83769 -22.8007,41.40875 -0.947,1.4708 -2.63943,4.24918 -3.76096,6.17418 -1.12152,1.925 -4.5116,7.01674 -7.53349,11.31497 -3.0219,4.29824 -7.58987,10.82324 -10.15105,14.5 -5.90122,8.47164 -10.37084,14.60504 -14.3452,19.68503 -2.69378,3.44318 -9.30016,12.28978 -17.78549,23.81654 -2.04508,2.7781 -15.29918,18.40118 -19.202,22.63408 -0.825,0.89478 -6.9,7.67161 -13.5,15.05962 -15.16923,16.98039 -36.83031,38.6244 -69.54455,69.48976 -9.97106,9.40753 -12.62998,11.77213 -22.47686,19.98881 -3.28822,2.74384 -6.46085,5.44384 -7.05027,6 -3.78451,3.57091 -37.28018,29.54668 -49.00598,38.00395 -14.01423,10.10781 -31.2682,21.92285 -46.42234,31.78871 -20.72965,13.49571 -70.41474,40.12301 -95.5,51.18049 -1.65,0.72731 -5.025,2.22281 -7.5,3.32333 -5.91582,2.6305 -20.83922,8.40078 -29,11.21314 -3.575,1.23202 -7.91801,2.86138 -9.65113,3.6208 -1.73312,0.75942 -3.63035,1.38077 -4.21607,1.38077 -0.58572,0 -2.54271,0.63738 -4.34887,1.41639 C 322.29551,782.64623 296.47102,789.88802 283,792.5357 257.2874,797.58943 244.49396,799 224.37102,799 c -21.37678,0 -32.78383,-1.44403 -50.18106,-6.35248 -7.4516,-2.10239 -7.53128,-0.68429 -0.56223,10.00569 15.49791,23.77261 47.41852,60.63046 67.40499,77.83071 1.90701,1.64115 6.39228,5.49626 9.96728,8.56691 6.69794,5.753 23.97245,19.29342 28.00218,21.94917 1.25182,0.825 3.45094,2.41631 4.88693,3.53626 2.69926,2.10518 22.23374,15.19518 25.31533,16.96374 0.95834,0.55 5.27618,3.09806 9.5952,5.66237 7.26379,4.31267 44.22393,22.83763 45.56459,22.83763 0.32555,0 3.86427,1.51518 7.86384,3.36707 15.9563,7.38813 29.37066,12.09121 30.28187,10.61685 0.30779,-0.49801 -1.03104,-3.16851 -2.97516,-5.93444 C 397.59065,965.28355 396,962.79252 396,962.51387 c 0,-0.27865 -2.16008,-3.54576 -4.80017,-7.26025 C 383.139,943.91239 377.77961,933.84469 368.9729,913.5 c -1.21935,-2.81689 -4.34656,-11.01765 -6.67329,-17.5 -1.08577,-3.025 -2.54331,-7.075 -3.23898,-9 -2.22208,-6.14876 -8.03671,-28.78341 -10.53252,-41 -1.89458,-9.27363 -4.00176,-23.90268 -5.68277,-39.45246 l -1.07591,-9.95246 2.67105,-2.29754 c 1.46907,-1.26365 3.35003,-2.29754 4.1799,-2.29754 0.82987,0 3.84228,-0.94356 6.69424,-2.09681 2.85196,-1.15324 6.98538,-2.80785 9.18538,-3.6769 2.2,-0.86906 5.81561,-2.3676 8.03469,-3.3301 7.05499,-3.06003 9.18102,-3.29591 10.33148,-1.14625 0.56678,1.05903 1.73084,9.91988 2.58681,19.69078 0.85596,9.7709 1.78829,18.14065 2.07184,18.59944 0.28354,0.45878 0.96142,4.57493 1.50639,9.147 0.54497,4.57206 1.62295,11.01284 2.39551,14.31284 0.77256,3.3 2.39105,10.5 3.59664,16 1.20559,5.5 2.76697,11.8 3.46974,14 0.70277,2.2 2.27622,7.375 3.49657,11.5 3.2463,10.97312 8.36443,23.91447 16.0172,40.5 1.77644,3.85 3.6333,7.9 4.12636,9 0.49305,1.1 1.785,3.35 2.871,5 1.08599,1.65 2.53695,4.125 3.22436,5.5 1.21048,2.42127 7.33909,11.68115 15.22245,23 7.50319,10.773 17.37634,21.47866 29.62074,32.1184 10.38434,9.0234 19.4124,14.8312 37.55476,24.1592 1.90154,0.9777 3.18692,2.2152 2.85639,2.75 -0.70554,1.1416 -14.98944,1.0818 -21.48293,-0.09 z m 94.45888,0 c -0.36253,-0.5866 -0.50159,-1.1941 -0.30902,-1.35 0.63885,-0.5171 11.71747,-5.5835 12.20935,-5.5835 0.91956,0 17.16795,-9.6766 23.64079,-14.079 11.55999,-7.86253 29.68178,-27.01098 41.3295,-43.671 2.01878,-2.8875 5.26594,-7.52446 7.21592,-10.30436 1.94998,-2.7799 3.98058,-6.0424 4.51244,-7.25 0.53186,-1.2076 1.91712,-3.77064 3.07836,-5.69564 2.48784,-4.12415 7.63188,-14.2583 11.16708,-22 4.91419,-10.76153 6.6967,-14.89898 6.6967,-15.54401 0,-0.35955 0.62229,-2.07174 1.38286,-3.80486 2.71132,-6.17832 8.43591,-25.78683 11.13799,-38.15113 0.96158,-4.4 2.34695,-10.56214 3.07861,-13.69366 0.73166,-3.13151 1.81607,-9.65651 2.40981,-14.5 C 714.60301,826.46286 715.4947,820.925 715.99081,819 717.00693,815.05724 719,788.20362 719,778.45563 c 0,-8.11942 1.68026,-9.46439 8.20281,-6.56592 9.11653,4.05118 13.41923,5.72066 26.29719,10.20355 9.27244,3.22779 8.87938,2.31422 8.13101,18.8986 -0.36012,7.9804 -1.12141,17.20943 -1.69177,20.50898 -0.57036,3.29954 -1.68672,10.04916 -2.48081,14.99916 -3.18881,19.87766 -7.14793,34.35611 -17.50073,64 -2.46126,7.0475 -11.23862,26.87405 -15.05377,34.00389 -1.76467,3.29786 -4.17267,7.79611 -5.35111,9.99611 -1.17843,2.2 -4.8224,8.00419 -8.09771,12.8982 -3.27531,4.89401 -6.42268,9.68352 -6.99415,10.64335 -0.57147,0.95983 -1.58007,2.39704 -2.24133,3.19381 -2.25669,2.71915 -0.0439,3.02033 5.28037,0.71872 1.1,-0.47551 4.925,-2.02985 8.5,-3.45408 6.77738,-2.70002 7.62439,-3.05566 15,-6.29825 21.99915,-9.67162 35.39302,-16.66273 58.8259,-30.70496 2.82895,-1.69526 24.38604,-16.29228 29.50946,-19.98183 22.49241,-16.19758 51.26062,-41.89834 70.66464,-63.12992 12.19627,-13.34498 30.16606,-35.51581 37,-45.65 2.85264,-4.23023 6.97532,-6.17032 15.25567,-7.17914 3.16562,-0.38568 9.46562,-2.00965 14,-3.60883 C 964.5911,789.00733 970,788.21786 970,789.94098 c 0,0.51754 -0.42095,1.20115 -0.93545,1.51912 -0.51449,0.31798 -2.09951,2.93204 -3.52225,5.80902 -1.42274,2.87698 -3.14475,6.13088 -3.82668,7.23088 -2.34909,3.78921 -5.17064,8.00116 -5.69409,8.5 -0.28856,0.275 -2.51585,3.425 -4.94952,7 -2.43368,3.575 -5.65872,8.3 -7.16678,10.5 -2.9158,4.25367 -13.73946,17.98337 -23.02512,29.20713 -14.15138,17.10505 -49.45163,50.37015 -71.93383,67.78668 C 834.88537,938.38652 808.13192,957 806.53656,957 c -0.23996,0 -2.37136,1.29984 -4.73643,2.88853 -2.36507,1.58868 -7.00013,4.32844 -10.30013,6.08835 -3.3,1.7599 -9.15,4.94955 -13,7.0881 -6.28162,3.48925 -27.25365,13.94972 -35,17.45736 -3.02049,1.36772 -5.51722,2.36837 -22,8.81726 -16.23308,6.3512 -48.0258,15.9686 -61.5,18.604 -12.97161,2.5371 -17.06837,3.3669 -23.07669,4.6738 -3.61718,0.7869 -10.14218,1.8561 -14.5,2.3761 -4.35782,0.5199 -10.62331,1.4065 -13.92331,1.9701 -7.89803,1.349 -21.20003,1.3308 -22.04112,-0.03 z M 475,924 l -3.5,-0.5 -0.27078,-7.5 c -0.399,-11.05176 4.44704,-28.45112 10.91728,-39.19769 4.76974,-7.92216 9.53503,-13.51773 15.23946,-17.89475 2.81272,-2.1582 5.68665,-4.39749 6.38651,-4.9762 0.69985,-0.5787 2.86362,-1.71701 4.80836,-2.52958 3.40007,-1.42064 3.67771,-1.3703 7.22753,1.31041 2.0304,1.5333 5.71664,3.76668 8.19164,4.96308 13.53047,6.54053 21.91228,7.9937 33.96793,5.88906 4.48711,-0.78335 8.69246,-1.85071 9.34522,-2.37191 0.65277,-0.5212 2.31185,-1.28782 3.68685,-1.70358 1.375,-0.41577 4.69628,-2.49585 7.38063,-4.62239 2.68434,-2.12655 5.60289,-3.86645 6.48565,-3.86645 6.64313,0 23.23195,14.5933 27.9523,24.58983 1.27521,2.70059 2.96271,6.1046 3.75,7.56446 0.78728,1.45986 1.43142,3.19185 1.43142,3.84887 0,0.65702 0.65243,2.61259 1.44984,4.34571 3.28252,7.13434 4.74489,30.41471 2.05095,32.65047 -1.17395,0.9743 -16.84856,1.16357 -72.25,0.87245 C 510.33786,924.6673 476.925,924.275 475,924 Z m -19.431,-67.76559 c -9.58877,-0.18621 -15.43921,-0.71173 -16.35142,-1.4688 -1.89574,-1.57332 -0.86691,-9.40764 1.9781,-15.06294 C 443.89971,834.32763 450.86495,827 453.27013,827 c 1.01955,0 4.41335,1.2303 7.5418,2.734 7.43279,3.57261 12.94103,3.57375 20.36725,0.004 3.12355,-1.50139 6.27355,-2.4838 7,-2.18314 0.72645,0.30066 2.77829,2.52318 4.55964,4.93892 3.91672,5.31159 3.67178,6.28856 -3.46497,13.8204 -9.7927,10.3348 -9.95074,10.38131 -33.70485,9.92002 z M 617.0349,854.75 c -1.11962,-1.2375 -3.27299,-3.63313 -4.78528,-5.32362 -1.51229,-1.69049 -4.88712,-4.7822 -7.49962,-6.87046 -2.6125,-2.08826 -4.75125,-4.53014 -4.75278,-5.42638 -0.005,-3.06302 4.39752,-10.0118 6.71142,-10.59255 1.46615,-0.36798 4.26763,0.49744 7.9207,2.44683 7.26976,3.87936 13.52692,4.03365 20.96083,0.51685 6.21345,-2.93943 8.10439,-2.53076 13.52302,2.92266 2.632,2.64889 4.19432,5.59707 5.75317,10.85653 1.17698,3.97108 2.13855,8.14264 2.13681,9.27014 -0.006,4.10487 -1.5705,4.45 -20.16789,4.45 -17.15286,0 -17.83484,-0.0775 -19.80038,-2.25 z m -75.80357,-8.74206 c -2.89776,-0.43672 -5.82276,-1.23709 -6.5,-1.7786 -0.67723,-0.54151 -2.28607,-1.30837 -3.57519,-1.70413 -7.57551,-2.32568 -16.88933,-11.62147 -21.41438,-21.3729 -2.84177,-6.12399 -3.09134,-7.52592 -3.14243,-17.65231 -0.0527,-10.44994 0.10637,-11.32504 3.18147,-17.5 3.65804,-7.34557 5.79526,-9.97683 12.22249,-15.04786 8.54077,-6.7386 13.91805,-8.45485 26.41551,-8.43096 9.47097,0.0181 11.88042,0.36976 16.5812,2.42 9.98633,4.35552 17.82527,11.65985 22.09879,20.59166 5.51736,11.53147 4.88427,24.63309 -1.8181,37.62515 -9.07328,17.58789 -24.80759,25.74983 -44.04936,22.84995 z M 622.5,824.06697 c -6.59202,-1.5889 -11.48288,-7.0252 -13.55525,-15.06697 -1.62778,-6.31655 1.05601,-14.13299 6.29511,-18.33429 3.21607,-2.57901 4.57542,-2.99904 9.70575,-2.99904 4.84203,0 6.69452,0.50494 9.83372,2.68041 11.11469,7.70248 11.62123,25.03027 0.92026,31.48083 -3.85937,2.32644 -9.1287,3.22028 -13.19959,2.23906 z M 461.75784,821.43156 C 456.99679,818.31353 453.1914,812.4974 452.96981,808 c -0.45293,-9.19271 -0.0325,-10.92487 3.63794,-14.98759 6.8397,-7.57073 16.82432,-7.73485 24.05979,-0.39548 4.83502,4.90446 6.85614,10.6941 5.87908,16.84106 -1.90131,11.96159 -15.08414,18.32921 -24.78878,11.97357 z M 850,785.49157 c -6.875,-0.68834 -14.3,-1.71963 -16.5,-2.29177 -2.2,-0.57214 -6.475,-1.35775 -9.5,-1.74581 -12.41355,-1.59243 -57.91173,-14.66886 -69.65113,-20.01812 C 752.61575,760.64614 750.82576,760 750.37112,760 c -0.45464,0 -4.66163,-1.53489 -9.34887,-3.41086 -4.68724,-1.87597 -11.64046,-4.62256 -15.45161,-6.10353 -3.81115,-1.48098 -7.63615,-3.08031 -8.5,-3.55407 C 716.20679,746.45777 713.25,745.11271 710.5,743.9425 698.76017,738.94684 675.16883,727.39486 661.02802,719.71753 656.88761,717.46961 651.925,714.8004 650,713.78595 c -1.925,-1.01446 -4.85,-2.66845 -6.5,-3.67554 -3.18347,-1.94307 -6.33367,-3.83266 -14.15935,-8.49328 C 616.98416,694.25817 575,665.64055 575,664.57698 c 0,-1.8363 1.84855,-3.72738 10.21259,-10.44755 6.64395,-5.33815 15.55026,-13.21486 33.20383,-29.36531 2.24597,-2.05474 4.67805,-3.74224 5.40462,-3.75 0.72657,-0.008 5.90157,2.97403 11.5,6.62622 17.17753,11.20592 19.97577,12.97818 26.01688,16.47777 3.21086,1.86004 6.88222,4.05689 8.15859,4.88189 1.27637,0.825 10.34931,6.19787 20.16208,11.9397 23.35019,13.66311 49.53262,26.67008 69.34141,34.44759 5.225,2.05149 10.85,4.31566 12.5,5.03149 2.6953,1.16932 6.50556,2.5852 17.5,6.50291 1.925,0.68595 5.525,1.84619 8,2.57831 2.475,0.73212 5.85,1.78039 7.5,2.32948 7.85786,2.61498 14.43767,4.27723 38.21688,9.65468 3.96929,0.89762 10.94429,2.03108 15.5,2.5188 4.55572,0.48772 13.00812,1.41896 18.78312,2.06943 16.54866,1.86394 44.90869,-0.36116 59.48583,-4.66721 2.75779,-0.81465 7.48917,-2.2095 10.51417,-3.09968 11.00536,-3.2386 27.96212,-11.70738 38.37415,-19.16537 9.22512,-6.60782 22.60095,-20.31441 28.02935,-28.72251 2.1013,-3.25469 4.6788,-7.14862 5.7278,-8.65318 1.049,-1.50456 2.3477,-3.89413 2.8861,-5.31017 0.5384,-1.41604 1.4297,-2.29598 1.9807,-1.95543 1.4539,0.89857 1.2279,7.01466 -0.4569,12.36695 -8.915,28.31973 -13.217,41.20427 -14.7311,44.1194 -0.9955,1.91686 -1.8101,4.06559 -1.8101,4.77497 0,0.70937 -1.575,4.4173 -3.5,8.23984 -1.925,3.82254 -3.5,7.44273 -3.5,8.04486 0,1.61764 -5.30255,9.03594 -9.14202,12.78973 -3.22155,3.14967 -10.48817,7.64134 -25.35798,15.67439 -3.85,2.07987 -7.49723,4.16714 -8.10496,4.63838 -0.60773,0.47123 -3.30773,2.02502 -6,3.45285 -2.69227,1.42784 -6.02004,3.20241 -7.39504,3.94351 -21.88272,11.79423 -57.08805,16.64353 -94,12.94785 z M 343.47691,683.92725 c -0.3333,-1.05014 -0.31424,-2.38144 0.0424,-2.95843 0.3566,-0.57699 1.48689,-5.41852 2.51175,-10.75895 2.30619,-12.01726 4.27312,-20.49278 7.01086,-30.20987 1.16219,-4.125 2.69362,-9.78072 3.40315,-12.56826 0.70954,-2.78755 1.79968,-6.02046 2.42252,-7.18426 0.62285,-1.1638 1.14772,-2.93308 1.16638,-3.93174 0.0187,-0.99866 0.90339,-3.61574 1.96607,-5.81574 1.06268,-2.2 1.94741,-4.45 1.96608,-5 0.12835,-3.78122 17.51767,-41.09946 27.02648,-58 2.16614,-3.85 4.44798,-8.2375 5.07076,-9.75 1.59776,-3.88035 4.09704,-3.43473 8.41276,1.5 2.04428,2.3375 6.48597,7.19527 9.8704,10.79505 12.58691,13.38778 14.65347,15.95249 14.65095,18.18261 -0.001,1.24979 -1.63931,4.97234 -3.63976,8.27234 -7.22067,11.91141 -15.4113,29.32296 -21.63901,46 -4.91457,13.16061 -5.74639,15.52286 -7.21866,20.5 -0.73212,2.475 -1.88072,6.075 -2.55244,8 -0.67171,1.925 -1.88028,5.43437 -2.6857,7.7986 -1.54578,4.53748 -1.31559,4.3652 -18.26186,13.66781 -8.90769,4.88985 -22.92544,11.61709 -26.20854,12.5777 -2.19561,0.64242 -2.82331,0.43091 -3.31455,-1.11686 z M 752.45,673.05327 c -0.5225,-0.5207 -10.00899,-5.46802 -21.08109,-10.99404 -20.37223,-10.16767 -22.5994,-11.81636 -23.91727,-17.70507 -0.63868,-2.85387 -3.60977,-11.20062 -5.99936,-16.85416 -0.69741,-1.65 -2.06432,-5.025 -3.03758,-7.5 -0.97326,-2.475 -3.48972,-8.23911 -5.59213,-12.80913 C 690.72015,602.62085 689,598.72808 689,598.54028 689,597.66647 676.74139,576.9582 675.92569,576.45407 675.41656,576.13941 675,574.83664 675,573.55903 c 0,-2.26694 5.9298,-9.22515 23.36783,-27.42053 7.62333,-7.95442 8.67358,-8.19038 11.63217,-2.61342 0.825,1.55513 3.53564,6.46068 6.02364,10.90122 3.81082,6.80147 15.04464,29.25669 18.04683,36.0737 8.88385,20.17236 19.19564,53.02275 23.54261,75 0.76151,3.85 1.38509,7.3375 1.38574,7.75 0.002,1.08574 -5.42552,0.9227 -6.54882,-0.19673 z M 202.22251,664.4433 C 200.36384,663.14143 200,661.94493 200,657.13443 c 0,-3.1637 -0.5625,-6.47369 -1.25,-7.35554 -0.6875,-0.88186 -4.55873,-2.38994 -8.60273,-3.35131 -14.85853,-3.53225 -23.96193,-10.48905 -30.23622,-23.10645 -3.17702,-6.3889 -5.1871,-18.41445 -3.27547,-19.59591 0.48809,-0.30165 8.10406,-0.87179 16.92438,-1.26696 14.36204,-0.64346 16.21465,-0.54079 17.73849,0.98305 0.93585,0.93585 1.70155,2.65406 1.70155,3.81824 0,3.40428 4.19336,8.58959 8.27024,10.22658 4.77959,1.91916 12.46092,1.94197 16.98796,0.0504 11.47797,-4.7958 11.67564,-18.26862 0.35046,-23.88691 -2.80976,-1.39389 -7.58366,-3.28284 -10.60866,-4.19766 -3.025,-0.91482 -6.91801,-2.29077 -8.65113,-3.05766 -1.73312,-0.76684 -3.59124,-1.3943 -4.12916,-1.3943 -0.53791,0 -3.3949,-1.16441 -6.34887,-2.58759 -15.67283,-7.55092 -22.28637,-13.55565 -26.80326,-24.33587 -2.03112,-4.84757 -2.22187,-6.59965 -1.79641,-16.5 0.41042,-9.55051 0.85589,-11.82636 3.23343,-16.51907 5.28414,-10.4297 15.76807,-18.10586 30.9954,-22.69434 2.88289,-0.8687 3.02137,-1.17715 3.54744,-7.9013 0.30109,-3.84852 0.89015,-7.55182 1.30901,-8.22957 1.05042,-1.69961 16.03735,-1.68433 17.39771,0.0177 0.54948,0.6875 1.29839,3.72888 1.66424,6.75861 0.85897,7.11334 1.28482,7.69678 6.8376,9.36792 7.54582,2.27096 17.22089,8.24779 22.05525,13.62476 7.27645,8.09316 9.66562,12.94294 9.94521,20.1878 L 257.5,542.5 l -15.11826,0.27534 c -8.31504,0.15143 -16.28983,-0.1701 -17.72175,-0.71451 -1.52393,-0.5794 -3.20256,-2.42362 -4.04822,-4.44756 -2.07486,-4.96586 -5.32608,-6.70423 -12.93405,-6.91562 -7.0596,-0.19616 -9.47966,1.08487 -12.2801,6.50033 -2.91906,5.64485 -0.42128,13.18706 5.35673,16.17499 3.25281,1.68209 13.12042,5.09502 18.85603,6.52176 11.81317,2.93856 23.96127,9.04585 29.99908,15.08164 2.48883,2.488 5.95736,7.44863 7.70784,11.02363 3.07295,6.27585 3.18095,6.93106 3.13191,19 -0.0542,13.33443 -0.53838,15.1334 -6.60549,24.5423 -5.24141,8.12842 -15.84616,14.81097 -25.63267,16.15236 -2.36662,0.32438 -5.40727,1.45844 -6.757,2.52014 C 219.361,649.86119 219,650.98438 219,655.85007 219,664.13525 217.37698,666 210.1658,666 c -3.55929,0 -6.56052,-0.58817 -7.94329,-1.5567 z m 611.21951,-28.39138 c -4.44482,-1.97904 -9.19345,-6.96763 -9.87976,-10.37899 -0.82642,-4.10773 -1.26659,-74.20538 -0.66473,-105.85941 l 0.60247,-31.68649 2.91148,-3.03678 c 5.36559,-5.59652 17.56321,-8.25583 25.60935,-5.58333 6.29322,2.09027 6.94128,1.50376 6.96386,-6.30237 0.023,-7.95456 4.38962,-11.60285 11.51531,-9.62098 2.88747,0.80309 5.49807,4.79329 6.33041,9.67579 l 0.72292,4.24064 27.47334,0.5 c 15.11033,0.275 28.03583,0.1074 28.72333,-0.37244 0.6875,-0.47985 1.25988,-2.05485 1.27196,-3.5 0.0121,-1.44516 0.89008,-4.54006 1.95111,-6.87756 1.925,-4.24086 1.94082,-4.25 7.35559,-4.25 6.47942,0 7.46397,0.92574 8.59519,8.08181 1.06407,6.73125 2.65108,7.93933 8.83775,6.7275 10.42808,-2.04261 20.20803,1.83511 24.05489,9.5377 2.17814,4.3613 2.18351,4.5336 2.18351,70.05236 0,62.59386 -0.0894,65.85465 -1.90268,69.39047 -2.56341,4.99854 -5.79216,7.83839 -11.00152,9.67636 -3.74817,1.32243 -13.52858,1.52407 -70.97153,1.46316 -61.99574,-0.0657 -66.90619,-0.19616 -70.68225,-1.87744 z m 137.15299,-16.156 c 1.8089,-1.99794 1.91947,-4.52827 2.19214,-50.16285 0.18571,-31.0815 -0.066,-48.41189 -0.71245,-49.05837 -1.25191,-1.25191 -133.86812,-1.28941 -135.0931,-0.0382 -1.0703,1.09321 -1.7511,94.12797 -0.7096,96.9705 0.4246,1.15886 1.7746,2.5909 3,3.18232 1.51294,0.7302 22.6385,1.09704 65.82301,1.143 63.41537,0.0675 63.6004,0.0617 65.5,-2.0364 z m -58.74238,-10.56548 c -2.03819,-0.54136 -2.82129,-3.30224 -2.83898,-10.00901 -0.019,-7.21837 1.35514,-8.32143 10.36665,-8.32143 10.04588,0 10.98935,0.85389 10.44195,9.45059 -0.53732,8.43837 -1.79627,9.59552 -10.26338,9.43341 -3.33238,-0.0638 -6.80019,-0.3129 -7.70624,-0.55356 z m 29.7203,-0.90037 c -0.86346,-0.86346 -1.84972,-2.6847 -2.19169,-4.04721 -0.76111,-3.03253 0.31412,-10.31086 1.78507,-12.08325 1.4867,-1.79137 16.18254,-1.78912 17.66963,0.003 0.59445,0.71628 1.19393,4.3658 1.33217,8.11006 0.21098,5.71419 -0.054,7.03102 -1.64951,8.19769 -2.74001,2.00354 -14.8912,1.87448 -16.94567,-0.17999 z m -90.42186,-0.31554 c -0.8608,-0.54551 -1.48083,-3.42927 -1.71341,-7.96909 C 829.00186,591.63878 829.66976,591 839,591 c 9.16745,0 10,0.73557 10,8.83518 0,3.92819 -0.50318,7.268 -1.2,7.96482 -1.38166,1.38166 -14.57181,1.63084 -16.64893,0.31453 z m 28.88084,-1.5306 c -1.07899,-2.83795 -0.25541,-12.45149 1.22797,-14.33393 1.43088,-1.81582 15.13312,-1.68631 16.66335,0.1575 0.72425,0.87267 1.05577,4.19756 0.87245,8.75 L 878.5,608.5 l -8.75989,0.28908 c -8.53507,0.28166 -8.78424,0.22506 -9.7082,-2.20515 z m 1.25186,-25.44132 c -0.54271,-0.35343 -1.24117,-4.09423 -1.55212,-8.31287 C 859.00106,562.91784 859.85075,562 869.75731,562 c 9.70045,0 10.63363,1.00662 10.00559,10.79291 -0.30898,4.8145 -0.96398,7.72065 -1.86927,8.29374 -1.57514,0.99712 -15.09474,1.04267 -16.60986,0.056 z M 890.25,580.87677 c -1.48121,-1.51293 -1.69204,-14.62896 -0.27128,-16.87677 0.68702,-1.08695 3.25277,-1.59521 9.31751,-1.84575 11.25137,-0.46481 12.01136,0.26767 11.10138,10.69948 -0.36685,4.20545 -0.86833,7.87127 -1.1144,8.14627 -0.24607,0.275 -4.34796,0.64704 -9.1153,0.82677 -6.08449,0.22937 -9.04047,-0.0538 -9.91791,-0.95 z M 921.2,580.8 c -0.72728,-0.72728 -1.2,-4.25885 -1.2,-8.96482 0,-6.65339 0.27686,-7.91298 1.93426,-8.8 2.69501,-1.44232 15.38258,-1.31834 16.86574,0.16482 0.72728,0.72728 1.2,4.25885 1.2,8.96482 0,6.65339 -0.27686,7.91298 -1.93426,8.8 -2.69501,1.44232 -15.38258,1.31834 -16.86574,-0.16482 z m -91,-1 c -0.7149,-0.7149 -1.2,-4.16106 -1.2,-8.52475 0,-6.94251 0.13386,-7.37565 2.5651,-8.3 C 832.9759,562.43886 836.32161,562 839,562 c 2.67839,0 6.0241,0.43886 7.4349,0.97525 2.45537,0.93353 2.5651,1.31395 2.5651,8.89301 0,6.29747 -0.3237,8.04198 -1.58179,8.52475 C 844.5354,581.49925 831.44853,581.04853 830.2,579.8 Z m 30.46667,-27.46667 C 859.47404,551.1407 859.93073,536.46927 861.2,535.2 c 0.72281,-0.72281 4.22222,-1.2 8.8,-1.2 4.57778,0 8.07719,0.47719 8.8,1.2 1.47741,1.47741 1.59904,13.18587 0.16482,15.86574 -0.89578,1.67378 -2.15266,1.93426 -9.33334,1.93426 -4.56398,0 -8.59815,-0.3 -8.96481,-0.66667 z M 890.2,551.8 c -1.33041,-1.33041 -1.65277,-14.53944 -0.40282,-16.50607 0.83638,-1.31593 17.16728,-2.05196 19.09494,-0.8606 0.66711,0.41229 1.10788,4.00037 1.10788,9.0187 0,6.67702 -0.31449,8.45467 -1.58179,8.94098 -2.90711,1.11556 -16.9673,0.6579 -18.21821,-0.59301 z m 31.05,0.55628 c -1.67498,-0.70074 -1.71808,-15.4882 -0.05,-17.15628 1.6591,-1.6591 17.21217,-1.61725 18.5825,0.05 0.64061,0.77942 0.78082,4.26169 0.37244,9.25 l -0.65494,8 -8.5,0.18961 c -4.675,0.10429 -9.0625,-0.0457 -9.75,-0.33333 z m -88.5905,-1.80122 c -0.32306,-0.84189 -0.86222,-3.67368 -1.19813,-6.29288 -0.8479,-6.61136 0.71335,-8.44627 7.67806,-9.02384 7.154,-0.59326 8.04646,0.50469 7.65831,9.42165 L 846.5,551.5 l -6.62656,0.29288 c -5.21579,0.23052 -6.75161,-0.033 -7.21394,-1.23782 z m -348.30748,41.32915 c -7.74146,-6.9866 -6.74841,-6.04555 -17.98408,-17.04239 C 450.48355,559.29508 430.14996,538.23816 421.13518,528 c -4.60066,-5.225 -9.57217,-10.85 -11.04781,-12.5 -1.47564,-1.65 -6.24199,-7.5 -10.59189,-13 -4.3499,-5.5 -8.28032,-10.45 -8.73426,-11 -12.767,-15.4685 -29.41249,-38.68362 -40.35502,-56.28227 -2.14841,-3.45526 -5.38884,-8.58761 -7.20096,-11.40525 -2.15453,-3.35005 -2.95517,-5.46255 -2.3135,-6.10422 0.64166,-0.64166 5.24261,-0.56489 13.29475,0.22183 6.77243,0.6617 16.81351,1.6351 22.31351,2.16311 5.5,0.52802 13.24353,1.62306 17.20784,2.43342 3.96431,0.81036 8.25727,1.47338 9.5399,1.47338 1.28264,0 4.78911,0.61893 7.79216,1.3754 3.00306,0.75648 6.6856,1.66204 8.18343,2.01236 1.94562,0.45506 4.00318,2.59757 7.20505,7.50252 2.46494,3.77606 7.30557,10.408 10.75696,14.73764 3.45138,4.32964 7.82348,9.89708 9.71577,12.37208 9.36688,12.25133 59.68074,64.44242 78.08655,81 C 537.77494,554.50323 540,556.69126 540,557.76244 c 0,1.23796 -5.43328,6.13308 -18,16.21712 -5.775,4.63409 -10.725,8.68597 -11,9.00417 -2.25747,2.61216 -16.41902,13.08333 -18.34965,13.56789 -1.98121,0.49725 -3.55891,-0.39013 -8.29833,-4.66741 z M 65,503.12381 c -5.31508,-1.1735 -11.097643,-4.53044 -15.139815,-8.78908 -5.931276,-6.2489 -7.282636,-9.76971 -7.229165,-18.83473 0.05497,-9.31963 2.063567,-14.59933 8.211087,-21.58328 5.728681,-6.50813 11.228017,-8.92162 20.267424,-8.89476 16.758991,0.0498 28.035781,10.51084 31.416349,29.14372 1.53055,8.43601 -5.301531,21.27438 -14.049639,26.40111 -3.546436,2.07835 -6.082029,2.69558 -12.22535,2.97599 C 71.987901,503.73736 66.925,503.54882 65,503.12381 Z m 14.729764,-14.69097 c 8.100142,-3.36694 11.238993,-11.77172 7.323903,-19.61093 -5.408359,-10.82919 -19.003532,-12.7375 -26.28808,-3.68997 -6.10201,7.5788 -3.674578,18.14474 5.196303,22.61806 5.261025,2.65298 8.626577,2.8199 13.767874,0.68284 z M 593.95069,489.279 C 581.52263,478.42326 559.04209,463.12855 543.5,454.9547 c -3.3,-1.73552 -6.47004,-3.53868 -7.04453,-4.00701 -1.45074,-1.18268 -31.23295,-15.94627 -32.18329,-15.95385 -0.4247,-0.003 -2.11397,-0.70581 -3.75394,-1.56094 -2.89116,-1.50753 -10.18725,-4.44227 -21.51824,-8.65538 -3.025,-1.12476 -6.4,-2.42265 -7.5,-2.8842 -8.37336,-3.51337 -25.88607,-8.69074 -42,-12.41668 -20.28979,-4.6915 -28.13137,-6.27661 -36.68144,-7.41484 -4.22479,-0.56243 -9.62479,-1.44657 -12,-1.96476 -2.37521,-0.51819 -15.48161,-1.72356 -29.12534,-2.67859 -23.40662,-1.63842 -26.34164,-1.64131 -52,-0.0511 -47.68218,2.9552 -71.51204,7.24202 -105.19322,18.9235 -22.00045,7.6303 -22.65033,7.8846 -34.82383,13.62604 -5.92767,2.7957 -10.95566,5.08309 -11.1733,5.08309 -0.85306,0 -13.52118,7.68388 -23.36339,14.17112 -5.69829,3.75589 -10.94565,6.82888 -11.6608,6.82888 -0.71515,0 -2.28074,-2.02538 -3.47909,-4.50085 -3.24977,-6.71312 -12.418259,-14.22851 -21.317046,-17.47353 l -2.817456,-1.02741 1.98129,-2.74911 C 94.712125,420.72266 121.53537,397.55936 138,386.93879 c 11.22448,-7.2404 10.97093,-7.09642 22.5,-12.77664 50.32284,-24.79341 93.00475,-34.0941 156.5,-34.10248 30.66067,-0.004 60.22538,2.6321 83.5,7.44529 3.85,0.79618 9.475,1.93298 12.5,2.52622 29.45564,5.7766 63.33497,15.99401 86.69514,26.14572 2.30732,1.00271 4.86826,1.8231 5.69098,1.8231 0.82271,0 1.75367,0.41717 2.06879,0.92704 0.31512,0.50988 2.25418,1.4732 4.30902,2.14072 6.55854,2.13056 30.48666,13.51505 41.73607,19.85714 3.85,2.17052 9.21975,5.14769 11.93278,6.61594 2.71302,1.46825 6.08802,3.4735 7.5,4.4561 1.41197,0.98259 7.06722,4.72382 12.56722,8.31383 5.5,3.59001 11.42049,7.57623 13.15663,8.85826 1.73615,1.28203 4.15107,3.00597 5.36648,3.83097 2.98441,2.02577 10.58715,7.87656 21.72689,16.72023 6.91062,5.48624 9.25,7.93168 9.25,9.66938 0,2.26081 -2.47468,5.1766 -23,27.09965 -4.125,4.40591 -8.19719,8.30033 -9.04931,8.65428 -1.03381,0.42941 -4.02844,-1.52194 -9,-5.86454 z M 485.32379,478.21058 C 472.55308,464.69617 468,459.1614 468,457.15159 468,454.93947 477.02831,446 479.26242,446 c 1.76828,0 9.22017,3.2995 28.98433,12.8335 9.83117,4.74244 11.74729,6.03342 11.75,7.9165 0.002,1.2375 -0.50978,2.25 -1.13683,2.25 -0.62704,0 -5.4913,4.275 -10.80947,9.5 -5.67393,5.57452 -10.47125,9.48371 -11.60993,9.46058 -1.12675,-0.0229 -5.78863,-4.11162 -11.11673,-9.75 z m 521.21361,4.52244 C 1000.4673,480.45971 992.46565,473.76142 988.34042,467.5 986.17606,464.21486 983,453.51133 983,449.50244 c 0,-3.59351 3.40457,-15.41545 5.77883,-20.06628 6.79148,-13.3035 23.13767,-20.58828 38.30017,-17.06868 12.1364,2.81718 20.0931,9.214 25.1411,20.21218 1.9064,4.15351 2.26,6.63468 2.2691,15.92034 0.01,9.97801 -0.2458,11.53084 -2.7513,16.71358 -3.407,7.04785 -7.939,11.54895 -15.9005,15.7924 -5.2742,2.8111 -7.3067,3.30937 -14.728,3.6106 -7.0468,0.28603 -9.6916,-0.0558 -14.572,-1.88356 z m 24.3943,-18.18567 c 10.1218,-7.01445 10.9267,-22.62757 1.5888,-30.82004 C 1028.9102,430.55979 1023.1573,428 1019.649,428 c -3.9655,0 -10.2739,2.60744 -13.3066,5.5 -3.2657,3.11471 -6.34462,10.03709 -6.3204,14.21016 0.044,7.61714 6.6947,17.12864 13.478,19.27599 5.0364,1.59435 13.2751,0.44171 17.4317,-2.4388 z M 604.5,409.0897 c -2.2,-1.55709 -6.925,-4.69202 -10.5,-6.96652 -12.49162,-7.94746 -22.99995,-15.22323 -22.99368,-15.92039 0.003,-0.38654 1.46598,-1.55871 3.25,-2.60483 4.04419,-2.37145 38.10771,-19.49273 43.36626,-21.7971 2.13258,-0.93453 5.99023,-2.62203 8.57256,-3.75 2.58232,-1.12797 5.28232,-2.06517 6,-2.08266 0.71767,-0.0175 2.17837,-0.6925 3.24599,-1.5 1.06762,-0.80751 2.64262,-1.48347 3.5,-1.50213 0.85738,-0.0187 3.35887,-0.90339 5.55887,-1.96607 2.2,-1.06268 4.4413,-1.94741 4.98067,-1.96607 0.93708,-0.0324 8.64622,-2.90701 15.01933,-5.60042 1.65,-0.69732 4.69247,-1.58114 6.76105,-1.96405 2.06857,-0.3829 3.98343,-1.05602 4.25524,-1.49581 0.2718,-0.43979 2.40433,-1.11604 4.73895,-1.50277 2.33462,-0.38672 5.11404,-1.16048 6.1765,-1.71946 1.06245,-0.55897 4.21245,-1.59311 7,-2.29808 2.78754,-0.70496 9.53626,-2.46262 14.99714,-3.90589 5.46088,-1.44328 10.51835,-2.39794 11.23881,-2.12147 1.95845,0.75152 2.27949,0.0412 -19.88129,43.98779 -2.22011,4.40265 -6.06939,7.01996 -12.2864,8.35412 -6.15447,1.32075 -25.64913,8.05875 -26.95,9.31483 -0.5225,0.5045 -1.6475,0.93255 -2.5,0.95121 -0.8525,0.0187 -3.35,0.90339 -5.55,1.96607 -2.2,1.06268 -4.38199,1.94741 -4.84887,1.96607 -0.46688,0.0187 -2.26688,0.67217 -4,1.45225 -1.73312,0.78007 -7.87613,3.44216 -13.65113,5.91576 -5.775,2.4736 -12.525,5.65494 -15,7.06964 -2.475,1.4147 -4.95,2.55978 -5.5,2.54462 -0.55,-0.0152 -2.8,-1.30156 -5,-2.85864 z M 83,403.214 c 0,-1.15278 0.398987,-2.34255 0.886637,-2.64394 0.48765,-0.30138 1.179475,-2.10893 1.537389,-4.01677 0.357913,-1.90785 1.306154,-4.72532 2.107202,-6.26105 0.801048,-1.53573 1.474492,-3.46724 1.496543,-4.29224 0.02205,-0.825 0.909554,-3.3 1.972229,-5.5 1.062675,-2.2 1.947406,-4.60557 1.966069,-5.34571 0.01866,-0.74014 0.655368,-2.54014 1.414901,-4 0.759534,-1.45986 2.406851,-5.12929 3.660705,-8.15429 4.398165,-10.61085 11.991615,-27.51893 14.060385,-31.3078 0.54289,-0.99429 2.34089,-4.47192 3.99555,-7.72808 2.53969,-4.99779 8.46263,-15.23914 15.73523,-27.2078 2.30288,-3.7899 4.69993,-3.43346 11.51349,1.71203 3.21548,2.42828 7.1534,4.70214 8.75094,5.05301 4.30549,0.94565 4.55805,3.96906 0.90362,10.81732 -6.42696,12.04384 -13.64265,26.38775 -16.43025,32.66132 -9.93293,22.35432 -9.90663,22.31305 -18.12283,28.4476 -4.5019,3.36131 -12.36842,9.93079 -23.94781,19.99928 C 82.022689,406.29613 83,405.63606 83,403.214 Z m 455,-78.23483 c -0.825,-0.49676 -4.2,-2.10902 -7.5,-3.58279 -5.62825,-2.51357 -32.95887,-15.6674 -52.84766,-25.43482 -6.10887,-3.00007 -9.12698,-5.07976 -9.75,-6.71843 -1.04611,-2.75148 -1.1953,-40.17918 -0.24313,-60.99313 0.56232,-12.29204 0.87784,-14.25 2.29634,-14.25 0.90445,0 2.07195,0.40049 2.59445,0.88998 0.80311,0.75237 9.65656,5.60906 21.10834,11.57929 1.56291,0.8148 8.46666,4.20429 15.34166,7.5322 6.875,3.32791 17,8.47913 22.5,11.44714 l 10,5.3964 0.6511,5.32749 c 0.87769,7.18151 1.00668,45.93767 0.19693,59.17194 -0.65196,10.65558 -1.07946,11.60287 -4.34803,9.63473 z m 16.3737,-1.62638 c -0.36543,-1.45596 -0.42693,-18.41043 -0.13669,-37.67659 l 0.52773,-35.02939 2.82604,-2.0734 c 5.48291,-4.02268 69.54501,-35.3852 69.90666,-34.2238 0.49744,1.59746 1.20489,72.75229 0.74432,74.86214 -0.24358,1.11578 -10.70851,6.79371 -30.05772,16.30833 -16.32622,8.02812 -32.21613,15.92034 -35.31091,17.53825 -6.89955,3.60701 -7.66141,3.63341 -8.49943,0.29446 z m 34.50457,-30.39796 c 7.29991,-2.77453 14.50187,-7.63547 16.61651,-11.21527 1.30526,-2.20965 1.58881,-4.11304 1.12107,-7.52556 -1.29778,-9.46836 -6.30663,-10.53179 -19.25376,-4.08775 -7.15137,3.55937 -8.44836,4.60513 -9.44074,7.61206 -1.38429,4.19443 -0.7728,13.53083 1.02834,15.70107 1.70589,2.05547 3.47252,1.96925 9.92858,-0.48455 z M 285.64924,318.9096 c -0.87057,-1.2429 -2.74475,-6.11853 -4.16486,-10.83471 C 280.06428,303.3587 278.01782,296.575 276.9367,293 c -1.08112,-3.575 -1.95916,-7.48321 -1.95119,-8.6849 0.008,-1.2017 -0.48228,-3.4517 -1.08943,-5 -0.60716,-1.54831 -1.77097,-7.0901 -2.58623,-12.3151 -0.81527,-5.225 -1.86066,-11.75 -2.32308,-14.5 -1.18384,-7.04026 -1.17469,-42.88917 0.0126,-49.5 0.5433,-3.025 1.60982,-8.875 2.37004,-13 0.76022,-4.125 1.18654,-7.8375 0.94737,-8.25 -0.78397,-1.35215 -3.84106,-0.78586 -5.39841,1 -0.83934,0.9625 -4.85374,4.675 -8.92088,8.25 -4.06715,3.575 -9.44292,8.34964 -11.94617,10.61031 -7.95712,7.18604 -8.4433,7.2313 -12.3925,1.15365 -1.88125,-2.89518 -5.2741,-7.15907 -7.53966,-9.47532 -4.533,-4.63443 -4.99724,-6.41059 -2.36384,-9.04399 4.08398,-4.08398 40.83807,-32.2334 49.28238,-37.74465 11.4571,-7.47758 16.06001,-10.35814 17.89239,-11.19729 0.78657,-0.36021 3.70131,-2.15068 6.4772,-3.97882 2.77589,-1.82814 5.4719,-3.32389 5.99114,-3.32389 0.51923,0 1.65449,-0.62465 2.5228,-1.3881 0.86831,-0.76346 4.05374,-2.65304 7.07874,-4.19907 3.025,-1.54604 5.725,-3.06805 6,-3.38225 0.275,-0.31421 1.625,-1.12136 3,-1.79368 1.375,-0.67231 3.175,-1.65019 4,-2.17308 2.14357,-1.35858 15.35925,-7.44604 23,-10.59436 3.575,-1.47305 6.95,-3.04102 7.5,-3.48438 1.40006,-1.128601 8.5,-2.364849 8.5,-1.480027 0,0.400198 -2.38817,3.307137 -5.30704,6.459867 -5.79154,6.25555 -14.62996,19.0853 -19.65783,28.53508 -1.75581,3.3 -3.55605,6.675 -4.00054,7.5 -2.9529,5.4808 -7.49083,19.09504 -8.9997,27 -2.98757,15.65178 -3.24548,19.38999 -2.79337,40.48703 0.44619,20.82025 1.498,30.34812 4.91393,44.51297 2.97826,12.34995 3.92184,16.04995 5.73796,22.5 4.66128,16.55476 5.47637,19.01121 10.88423,32.80205 1.89837,4.84113 3.21199,9.04165 2.91916,9.33448 -0.29283,0.29283 -11.70691,0.69877 -25.36461,0.90208 -13.65771,0.20331 -27.36747,0.65342 -30.46615,1.00024 -5.09201,0.56993 -5.78621,0.41321 -7.2168,-1.62925 z M 167,285.37444 c -10.69545,-3.4883 -16.32123,-7.34467 -22.5796,-15.47789 C 141.98918,266.737 140,263.86804 140,263.52109 c 0,-0.34695 -0.9832,-2.74363 -2.18488,-5.32595 -1.81521,-3.90073 -2.18164,-6.47173 -2.16573,-15.19514 0.0184,-10.09497 0.16446,-10.79691 3.78616,-18.19708 4.64712,-9.49539 15.13265,-20.33261 21.56445,-22.28775 1.375,-0.41797 2.98479,-1.14548 3.5773,-1.61668 2.27986,-1.81306 15.72339,-2.96327 22.875,-1.95715 16.45073,2.31437 29.71555,14.3379 34.45594,31.23164 2.62224,9.34512 2.64795,15.81386 0.0918,23.0867 -1.1,3.12969 -2,6.11232 -2,6.62805 0,1.69717 -6.83051,11.53773 -10.70244,15.41875 -9.82352,9.8466 -28.98903,14.40851 -42.29756,10.06796 z m 20.29799,-17.38476 c 7.71105,-2.3817 15.43316,-8.73714 18.62349,-15.32748 3.01285,-6.22371 2.91172,-17.63536 -0.20796,-23.46798 -3.63122,-6.78898 -9.05116,-11.68473 -15.56532,-14.05991 -7.30697,-2.66426 -10.6899,-2.67993 -17.28571,-0.0801 -7.80122,3.07496 -12.13693,7.02969 -15.74747,14.36373 -4.30431,8.74329 -4.90738,14.57722 -2.20974,21.37653 3.96636,9.99708 8.84761,14.55189 18.58397,17.34112 7.59403,2.17551 6.24681,2.18974 13.80874,-0.1459 z m 301.53062,-59.87291 c -14.00332,-6.97594 -15.49348,-7.95737 -14,-9.22045 2.98646,-2.52575 22.36397,-13.41924 35.17139,-19.77237 6.875,-3.41035 15.65,-7.95465 19.5,-10.09845 3.85,-2.1438 8.40757,-4.55563 10.12792,-5.35963 1.72036,-0.80399 3.43442,-1.95772 3.80902,-2.56384 0.3746,-0.60611 1.54981,-1.10203 2.61159,-1.10203 1.74012,0 20.07892,9.14678 50.45147,25.1635 6.05,3.19042 12.43173,6.47699 14.18162,7.30348 1.74989,0.8265 3.46395,1.95954 3.80902,2.51787 C 614.8357,195.54318 615.96492,196 617,196 c 4.11683,0 3.45439,4.42048 -0.82236,5.48766 -1.4727,0.36749 -3.35264,1.26284 -4.17764,1.98968 -1.79103,1.57791 -10.82952,6.75195 -16.71408,9.5679 -3.04875,1.45892 -4.70795,1.74762 -6,1.04398 C 588.30366,213.55429 583.225,211.02625 578,208.47134 565.62092,202.41826 557.10238,197.8924 554.02749,195.73487 552.66762,194.78069 550.3244,194 548.82036,194 c -2.28337,0 -17.98239,7.37916 -21.32036,10.02141 -1.165,0.92218 -22.19854,11.99707 -22.67739,11.94043 -0.17744,-0.021 -7.37473,-3.55127 -15.994,-7.84507 z M 678.25,198.00137 c -1.91491,-0.79739 -2.25,-1.69313 -2.25,-6.0146 0,-6.1877 -2.58781,-9.29221 -9.13505,-10.95901 -6.19053,-1.57599 -8.54436,-2.93214 -13.40316,-7.72221 -4.63743,-4.57182 -6.45858,-8.7396 -6.7652,-15.4824 L 646.5,153.5 l 10.14752,-0.28385 10.14752,-0.28385 2.15289,3.48344 c 3.17534,5.13781 7.75504,7.58426 14.1976,7.58426 6.12969,0 8.69807,-1.39283 11.78819,-6.39276 4.12677,-6.67726 -0.70672,-11.76104 -17.6191,-18.53142 C 674.46266,137.93412 671.48913,137 670.70677,137 c -1.50914,0 -14.2281,-6.37897 -16.62756,-8.33926 -0.78144,-0.63841 -2.69394,-3.16134 -4.25,-5.60652 C 647.19671,118.91754 647,117.89569 647,108.35713 c 0,-8.933064 0.31221,-10.838488 2.42792,-14.817583 2.28026,-4.288584 8.72187,-11.498439 10.34027,-11.573478 C 660.17069,81.947406 662.3,81.062675 664.5,80 c 2.2,-1.062675 5.1824,-1.947406 6.62756,-1.966069 3.6428,-0.04704 4.70338,-1.729578 5.06256,-8.031366 0.29567,-5.187491 0.45989,-5.479622 3.58124,-6.370471 2.20378,-0.628972 4.08023,-0.565113 5.75,0.195682 2.13022,0.970596 2.48079,1.800058 2.49395,5.900785 0.008,2.624292 0.38175,5.348936 0.82962,6.054766 0.44786,0.70583 3.02847,1.664773 5.73468,2.130984 4.67408,0.805224 8.07073,2.284673 14.97212,6.521271 3.14883,1.932987 5.81172,7.209349 6.84574,13.564418 0.9084,5.58303 -0.2668,6.43383 -9.4639,6.85149 -8.63924,0.39233 -12.43958,-0.71971 -13.46134,-3.93899 -0.89114,-2.807734 -7.1111,-5.91555 -11.77939,-5.885599 -3.10458,0.01992 -5.07672,0.759917 -7.59822,2.85105 -2.94896,2.445639 -3.4661,3.556419 -3.85845,8.287719 -0.41488,5.00292 -0.20556,5.71106 2.48269,8.39895 3.92405,3.92353 8.03289,5.83872 18.815,8.76995 10.24469,2.78512 19.80969,7.57076 22.88411,11.44955 5.45365,6.88052 7.28892,20.22565 3.83203,27.86455 -3.79454,8.38501 -12.13379,16.32055 -18.84648,17.93409 -3.71415,0.89277 -8.69075,3.37471 -9.63821,4.80677 -0.40408,0.61076 -0.74158,3.44641 -0.75,6.30145 -0.008,2.85504 -0.35624,5.40169 -0.77293,5.65922 -1.79944,1.11211 -7.92656,1.5114 -9.99238,0.65117 z M 410.5,109.27897 c -2.75,-0.83205 -5.35986,-2.13519 -5.79969,-2.89589 C 404.26048,105.62239 403.42391,105 402.84126,105 c -1.31911,0 -5.80055,-4.17155 -5.82398,-5.421259 -0.01,-0.506693 -0.80478,-1.791437 -1.76728,-2.854988 -1.4246,-1.57416 -1.75,-3.820149 -1.75,-12.078741 0,-9.349024 0.21347,-10.473277 2.72075,-14.328808 3.69485,-5.681702 6.37095,-8.037097 12.37574,-10.892616 6.02143,-2.863431 16.60885,-3.339212 19.84464,-0.891785 C 429.50875,59.339312 431.00128,60 431.75785,60 c 2.26211,0 8.30019,5.140441 11.11246,9.460452 2.38408,3.662254 2.6263,4.933438 2.59343,13.61009 -0.0316,8.332116 -0.32271,9.934713 -2.25,12.384858 C 441.99618,97.003275 441,98.659031 441,99.134859 c 0,2.406471 -8.78443,8.591721 -14.79082,10.414431 -5.76971,1.75089 -9.22535,1.69143 -15.70918,-0.27032 z"
         id="path295" />
    </g>
  </g>
</svg>
